HIERARCHY
ROOT SimulationBone
{
	OFFSET 0.000000 0.000000 0.000000
	CHANNELS 6 Xposition Yposition Zposition Zrotation Yrotation Xrotation 
	JOINT Hips
	{
		OFFSET 0.000000 0.000000 0.000000
		CHANNELS 6 Xposition Yposition Zposition Zrotation Yrotation Xrotation 
		JOINT RightUpLeg
		{
			OFFSET 0.103458 1.857831 10.548505
			CHANNELS 3 Zrotation Yrotation Xrotation
			JOINT RightLeg
			{
				OFFSET 43.500000 -0.000031 0.000002
				CHANNELS 3 Zrotation Yrotation Xrotation
				JOINT RightFoot
				{
					OFFSET 42.372200 0.000023 0.000003
					CHANNELS 3 Zrotation Yrotation Xrotation
					JOINT RightToe
					{
						OFFSET 17.299997 -0.000001 -0.000010
						CHANNELS 3 Zrotation Yrotation Xrotation
						End Site
						{
							OFFSET 0.000000 0.000000 0.000000
						}
					}
				}
			}
		}
		JOINT LeftUpLeg
		{
			OFFSET 0.103457 1.857828 -10.548510
			CHANNELS 3 Zrotation Yrotation Xrotation
			JOINT LeftLeg
			{
				OFFSET 43.500046 -0.000015 0.000002
				CHANNELS 3 Zrotation Yrotation Xrotation
				JOINT LeftFoot
				{
					OFFSET 42.372261 -0.000008 0.000023
					CHANNELS 3 Zrotation Yrotation Xrotation
					JOINT LeftToe
					{
						OFFSET 17.299990 -0.000007 -0.000002
						CHANNELS 3 Zrotation Yrotation Xrotation
						End Site
						{
							OFFSET 0.000000 0.000000 0.000000
						}
					}
				}
			}
		}
		JOINT Spine
		{
			OFFSET 6.901967 -2.603726 -0.000001
			CHANNELS 3 Zrotation Yrotation Xrotation
			JOINT Spine1
			{
				OFFSET 12.588100 -0.000009 -0.000003
				CHANNELS 3 Zrotation Yrotation Xrotation
				JOINT Spine2
				{
					OFFSET 12.343202 0.000008 0.000008
					CHANNELS 3 Zrotation Yrotation Xrotation
					JOINT Neck
					{
						OFFSET 25.832897 -0.000015 -0.000004
						CHANNELS 3 Zrotation Yrotation Xrotation
						JOINT Head
						{
							OFFSET 11.766609 0.000013 -0.000006
							CHANNELS 3 Zrotation Yrotation Xrotation
							End Site
							{
								OFFSET 0.000000 0.000000 0.000000
							}
						}
					}
					JOINT RightShoulder
					{
						OFFSET 19.745911 -1.480373 6.000098
						CHANNELS 3 Zrotation Yrotation Xrotation
						JOINT RightArm
						{
							OFFSET 11.284123 -0.000007 -0.000032
							CHANNELS 3 Zrotation Yrotation Xrotation
							JOINT RightForeArm
							{
								OFFSET 33.000050 0.000005 0.000031
								CHANNELS 3 Zrotation Yrotation Xrotation
								JOINT RightHand
								{
									OFFSET 25.200008 0.000017 0.000013
									CHANNELS 3 Zrotation Yrotation Xrotation
									End Site
									{
										OFFSET 0.000000 0.000000 0.000000
									}
								}
							}
						}
					}
					JOINT LeftShoulder
					{
						OFFSET 19.746092 -1.480379 -6.000077
						CHANNELS 3 Zrotation Yrotation Xrotation
						JOINT LeftArm
						{
							OFFSET 11.284136 -0.000017 -0.000017
							CHANNELS 3 Zrotation Yrotation Xrotation
							JOINT LeftForeArm
							{
								OFFSET 33.000099 0.000019 0.000015
								CHANNELS 3 Zrotation Yrotation Xrotation
								JOINT LeftHand
								{
									OFFSET 25.199780 0.000140 0.000408
									CHANNELS 3 Zrotation Yrotation Xrotation
									End Site
									{
										OFFSET 0.000000 0.000000 0.000000
									}
								}
							}
						}
					}
				}
			}
		}
	}
}
MOTION
Frames: 14
Frame Time: 0.016667
88.211027 0.000000 63.767681 0.000000 193.585437 0.000000 -0.689490 87.981453 0.677953 93.834919 3.857106 -178.791308 167.856489 -3.860899 176.400769 -77.065358 2.756379 -3.730276 70.657794 1.716241 -2.555213 21.454562 0.003108 0.000018 161.608751 -0.323395 -178.209730 -37.986847 2.575526 2.724660 80.887853 -1.574421 1.708449 21.454551 -0.003090 0.000000 8.647788 1.783111 -1.002376 7.256367 3.625416 -1.892096 6.937769 3.613789 -1.913977 10.149999 11.900790 13.001527 -14.814320 -14.690091 19.571547 -174.965514 -71.843014 -6.558290 -17.348838 60.214454 22.281927 -25.941368 -17.059956 1.313789 10.957467 -0.292238 5.794871 -167.259652 71.755403 14.525822 -11.813045 -49.312196 -27.620890 -24.270790 12.727182 -0.985744 10.710092 -0.033473 -30.382630 
86.771751 0.000000 63.974712 0.000000 193.878832 0.000000 -0.657826 88.408762 0.694738 93.838792 3.785509 -178.929139 165.697823 -3.894114 175.433904 -77.708627 2.688899 -4.750823 71.244632 2.473288 -2.543686 21.454553 0.003111 0.000017 163.400420 -0.424492 -178.493923 -36.555380 2.696899 2.962935 81.221600 -1.741385 1.734979 21.454552 -0.003090 0.000000 8.565470 1.745956 -0.886403 7.095695 3.542838 -1.665081 6.777094 3.532584 -1.686467 10.213501 11.536082 12.859821 -14.668606 -14.612645 19.339635 -174.058457 -71.665663 -7.489812 -14.854063 59.874481 24.745406 -26.266895 -16.963525 1.313236 10.684270 0.436644 7.649812 -168.282039 71.942170 13.473600 -15.094216 -48.799092 -26.213413 -24.463346 12.884099 -0.998586 10.579731 0.404139 -30.662056 
85.326448 0.000000 64.198630 0.000000 194.146952 0.000000 -0.647764 88.879463 0.674537 93.632359 3.616638 -179.118134 163.440990 -3.859496 174.596588 -77.656299 2.446104 -5.414068 71.022294 2.894623 -2.745832 21.454545 0.003113 0.000015 165.095453 -0.423095 -178.689620 -34.851405 2.706542 3.116039 81.383411 -1.845499 1.764760 21.454553 -0.003091 -0.000000 8.429925 1.681762 -0.757008 6.828973 3.405138 -1.414316 6.510380 3.396399 -1.434875 9.939475 11.148571 12.734650 -14.244327 -14.391951 19.056402 -173.050192 -71.581267 -8.526624 -12.087884 59.530130 27.473281 -26.961476 -16.875362 1.319481 9.976203 0.806949 9.577558 -169.082548 72.251192 12.650109 -18.203128 -48.355959 -24.924034 -24.843053 13.126960 -1.020050 10.326214 0.897995 -31.208274 
83.875055 0.000000 64.441358 0.000000 194.392923 0.000000 -0.661608 89.332490 0.634678 93.298800 3.455844 -179.308030 161.053855 -3.873410 173.862873 -77.184924 2.181355 -5.444835 70.557668 2.887697 -2.849174 21.454551 0.003110 0.000016 166.714785 -0.394239 -178.893358 -32.996609 2.731846 3.263820 81.439794 -1.943806 1.796414 21.454553 -0.003092 -0.000000 8.264582 1.613300 -0.613673 6.502764 3.258427 -1.136454 6.184164 3.251367 -1.156134 9.375033 10.781326 12.641753 -13.602639 -14.063726 18.760190 -171.867845 -71.488260 -9.742936 -9.298912 59.047239 30.730920 -27.820413 -16.942054 1.338480 9.200832 0.959717 10.946481 -169.897494 72.684570 11.812716 -21.015446 -47.932940 -23.822370 -25.569181 13.335895 -1.045067 10.121153 1.747899 -32.032673 
82.417134 0.000000 64.704446 0.000000 194.616826 0.000000 -0.695643 89.728394 0.590540 92.910656 3.344131 -179.496428 158.686427 -3.964598 173.213420 -76.232936 1.933126 -5.019740 70.239971 2.640341 -2.688817 21.454560 0.003106 0.000017 168.276013 -0.375504 -179.060472 -31.110814 2.774407 3.383813 81.455776 -2.024439 1.813364 21.454553 -0.003092 0.000000 8.089854 1.545269 -0.453693 6.157908 3.112412 -0.825128 5.839311 3.107234 -0.843932 8.620206 10.585771 12.541951 -12.965765 -13.935083 18.553581 -170.529906 -71.486444 -11.120047 -6.592301 58.518217 34.177156 -28.800277 -17.110969 1.367817 8.463672 1.079291 11.690567 -170.795518 73.193095 10.891396 -23.532603 -47.476057 -22.920488 -26.596064 13.558564 -1.075873 9.849761 2.690798 -32.855070 
80.951837 0.000000 64.990777 0.000000 194.815589 0.000000 -0.745240 90.043094 0.553603 92.525939 3.283426 -179.690009 156.501819 -4.115448 172.670902 -74.687127 1.668589 -4.421122 70.306590 2.375970 -2.227983 21.454557 0.003106 0.000018 169.790492 -0.375813 -179.133588 -29.300798 2.809366 3.437003 81.488811 -2.063707 1.804440 21.454553 -0.003092 -0.000000 7.923974 1.475311 -0.277488 5.830827 2.962687 -0.480788 5.512271 2.959595 -0.498690 7.755880 10.652360 12.408916 -12.535685 -14.215942 18.510475 -169.016530 -71.662233 -12.677717 -3.984625 58.059172 37.422787 -29.905169 -17.303710 1.401975 7.801787 1.339162 11.896284 -171.781186 73.722849 9.881810 -25.801480 -46.934726 -22.179396 -27.837874 13.864455 -1.116810 9.351530 3.396046 -33.320999 
79.480145 0.000000 65.303711 0.000000 194.983338 0.000000 -0.803287 90.292374 0.517021 92.155398 3.181949 -179.888385 154.534314 -4.214600 172.419287 -72.578422 1.195837 -3.906899 70.580333 2.183814 -1.767899 21.454551 0.003109 0.000018 171.247473 -0.311905 -179.141341 -27.621707 2.819489 3.428351 81.567272 -2.059396 1.795536 21.454553 -0.003091 -0.000000 7.779519 1.391025 -0.100063 5.546199 2.785249 -0.133743 5.227707 2.784258 -0.150575 6.738410 10.723389 12.344619 -12.289553 -14.442621 18.560499 -167.221198 -71.843431 -14.524531 -1.531049 57.589831 40.251704 -31.171292 -17.537467 1.441791 7.214561 1.807807 11.712923 -172.791573 74.251905 8.848612 -27.944692 -46.280056 -21.390454 -29.250947 14.243098 -1.166853 8.505707 3.836927 -33.065700 
78.005056 0.000000 65.645861 0.000000 195.113296 0.000000 -0.863676 90.494955 0.472979 91.799949 2.955201 179.913583 152.785978 -4.154895 172.613672 -69.959397 0.359863 -3.704498 70.826713 2.131127 -1.591284 21.454548 0.003112 0.000017 172.631313 -0.102445 -179.130489 -26.111980 2.802405 3.375982 81.713346 -2.019343 1.812243 21.454552 -0.003091 0.000000 7.665043 1.281190 0.063937 5.320635 2.558140 0.186399 5.002206 2.559083 0.170934 5.502266 10.547913 12.449209 -12.126595 -14.144046 18.615495 -165.232639 -71.826523 -16.570191 0.708500 56.986950 42.499176 -32.615414 -17.828798 1.490208 6.707795 2.495306 11.300254 -173.754005 74.775696 7.866212 -30.064766 -45.484197 -20.403546 -30.803701 14.658692 -1.223058 7.269234 4.148213 -31.866225 
76.527405 0.000000 66.018105 0.000000 195.204253 0.000000 -0.935858 90.641457 0.427088 91.463526 2.641868 179.721910 151.260480 -3.978102 173.157371 -66.821413 -0.736925 -3.891063 70.984284 2.311596 -1.580577 21.454551 0.003113 0.000017 173.929032 0.226197 -179.150384 -24.794399 2.811872 3.309699 81.953629 -1.969950 1.841568 21.454553 -0.003092 0.000000 7.578804 1.149788 0.215775 5.150590 2.288944 0.482266 4.832231 2.291675 0.468423 4.008462 10.235910 12.651880 -11.857342 -13.500001 18.641297 -163.767486 -71.565408 -18.079595 2.814695 56.120445 44.152360 -34.140662 -18.096849 1.542112 6.359934 3.271509 10.798532 -174.662745 75.322380 6.940586 -32.147077 -44.548378 -19.436906 -32.471046 15.053450 -1.283077 5.890223 4.741675 -30.086716 
75.044737 0.000000 66.419254 0.000000 195.260708 0.000000 -1.030074 90.716544 0.386241 91.154311 2.316820 179.539884 149.972422 -3.774651 173.886748 -63.139854 -1.893801 -4.439129 71.024288 2.744623 -1.605505 21.454555 0.003109 0.000017 175.139977 0.610014 -179.233146 -23.680478 2.892643 3.255794 82.308770 -1.933935 1.867349 21.454554 -0.003093 -0.000000 7.518934 1.006815 0.358988 5.032408 1.997226 0.761228 4.714136 2.001648 0.749144 2.257975 9.989482 12.855209 -11.367836 -12.850687 18.655152 -163.363385 -71.125001 -18.499619 4.842208 54.946890 45.235823 -35.616161 -18.251074 1.586663 6.227411 4.021207 10.315567 -175.538194 75.907983 6.051009 -34.163387 -43.501581 -18.669798 -34.247069 15.382143 -1.343326 4.615221 5.949506 -28.149898 
73.554254 0.000000 66.847369 0.000000 195.287165 0.000000 -1.135011 90.709167 0.357930 90.898204 2.076068 179.378981 148.977626 -3.646498 174.603582 -58.918816 -2.810126 -5.065339 70.878347 3.134364 -1.883728 21.454560 0.003105 0.000017 176.312372 0.935807 -179.330756 -22.751937 3.001993 3.205442 82.771380 -1.901014 1.899747 21.454555 -0.003093 0.000000 7.493301 0.870878 0.490393 4.981960 1.720039 1.017669 4.663767 1.726017 1.007257 0.386464 10.031320 13.043909 -10.927072 -12.527967 18.813734 -163.436112 -70.777511 -18.428001 6.675601 53.799660 45.857148 -36.895093 -18.257726 1.617945 6.188395 4.818183 9.831257 -176.399443 76.468723 5.177304 -36.093253 -42.399962 -17.800564 -36.199660 15.671111 -1.406547 3.330720 7.617743 -26.083810 
72.053487 0.000000 67.302366 0.000000 195.287270 0.000000 -1.239099 90.623055 0.349710 90.714253 1.974247 179.256189 148.336571 -3.649212 175.155125 -54.163928 -3.287330 -5.462418 70.524496 3.228936 -2.509171 21.454562 0.003107 0.000016 177.504965 1.125899 -179.400654 -21.956981 3.091696 3.152219 83.312161 -1.862741 1.952963 21.454553 -0.003092 0.000000 7.507512 0.755385 0.604320 5.010669 1.484137 1.240652 4.692525 1.491464 1.231661 -1.449199 10.471178 13.222176 -10.813972 -12.712965 19.235085 -163.360212 -70.728019 -18.506639 8.207569 52.982154 46.191629 -37.855345 -18.120594 1.633320 6.098860 5.727636 9.287854 -177.253148 76.958791 4.311930 -37.918705 -41.299640 -16.520610 -38.375288 15.962377 -1.478436 1.856863 9.553272 -23.943955 
70.540440 0.000000 67.786597 0.000000 195.265877 0.000000 -1.351017 90.516747 0.362655 90.577963 1.878838 179.200741 148.098390 -3.617797 175.595803 -48.797872 -3.499379 -5.622726 70.168827 3.281772 -2.733995 21.454562 0.003110 0.000016 178.766213 1.302797 -179.489066 -21.139038 3.176044 3.142375 83.842053 -1.850245 2.030066 21.454551 -0.003091 0.000000 7.548063 0.644482 0.692064 5.091388 1.258161 1.411702 4.773289 1.266523 1.404073 -3.135401 10.948064 13.442913 -10.968199 -12.987705 19.774258 -163.245878 -70.731442 -18.624369 9.358717 52.309443 46.402761 -38.489601 -17.936717 1.637378 5.917206 6.600372 8.620084 -178.124818 77.484509 3.430095 -39.677753 -40.291760 -14.945724 -40.656724 16.290877 -1.559414 0.135245 11.813070 -22.304679 
69.014339 0.000000 68.301718 0.000000 195.231596 0.000000 -1.476487 90.438967 0.394394 90.462392 1.666526 179.230659 148.275533 -3.402109 176.045766 -42.793465 -3.661800 -5.666616 69.949160 3.567254 -2.000435 21.454558 0.003109 0.000017 -179.877894 1.590598 -179.611513 -20.182714 3.269032 3.201386 84.290652 -1.880282 2.130364 21.454551 -0.003092 -0.000000 7.598055 0.522844 0.750160 5.190212 1.011797 1.522914 4.872173 1.020836 1.516772 -4.580254 11.106348 13.754647 -11.222142 -12.925129 20.242698 -163.327360 -70.522486 -18.542399 10.029958 51.563567 46.591065 -38.749246 -17.792327 1.634849 5.638043 7.274302 7.767570 -179.077478 78.136440 2.469230 -41.392780 -39.447206 -13.283217 -42.912253 16.687490 -1.648522 -1.831944 14.434469 -21.687018 
